<svg xmlns="http://www.w3.org/2000/svg" width="47" height="55" fill="none"><path fill="url(#a)" stroke="url(#b)" stroke-width="3" d="M21.31 2.938a4.5 4.5 0 0 1 4.38 0l17.5 9.752a4.5 4.5 0 0 1 2.31 3.93v21.76a4.5 4.5 0 0 1-2.31 3.93l-17.5 9.752a4.5 4.5 0 0 1-4.38 0L3.81 42.31a4.5 4.5 0 0 1-2.31-3.93V16.62a4.5 4.5 0 0 1 2.31-3.93l17.5-9.752Z"/><path fill="url(#c)" fill-opacity=".7" d="M33 27.695c0-.547.374-.99.836-.99.329 0 .613.224.75.55l4.392-.01 2.814 3.33v-2.002c-.276-.162-.466-.498-.466-.887 0-.547.375-.99.837-.99.462 0 .837.442.837.99 0 .389-.19.725-.466.887v4.122l-3.862-4.572-4.086.01c-.137.327-.42.553-.75.553-.461 0-.836-.444-.836-.99Zm6.624-7.775a1.024 1.024 0 0 1-.049-.312c0-.248.09-.496.27-.685a.893.893 0 0 1 1.308 0c.181.19.27.439.27.687 0 .249-.09.497-.27.687a.892.892 0 0 1-.949.232l-3.595 3.779h4.635a.921.921 0 0 1 .828-.541c.511 0 .925.435.925.972 0 .537-.414.972-.925.972a.921.921 0 0 1-.828-.541h-6.613l4.993-5.25Zm2.212 7.766c0 .148.07.28.183.346l.144.085.145-.085a.396.396 0 0 0 .182-.346c0-.213-.147-.386-.327-.386-.18 0-.327.173-.327.386Zm-.087-2.78c.061.131.185.212.322.212.2 0 .361-.17.362-.379 0-.21-.162-.38-.362-.38a.358.358 0 0 0-.322.212l-.08.168.08.167ZM33 30.638c0-.52.395-.942.882-.943a.88.88 0 0 1 .79.525l3.71.026 2.453 2.616a.843.843 0 0 1 .906.226.97.97 0 0 1 .259.666.973.973 0 0 1-.259.666.844.844 0 0 1-1.248 0 .97.97 0 0 1-.258-.665c0-.102.017-.204.047-.302l-2.224-2.372-3.385-.026a.878.878 0 0 1-.79.524c-.488 0-.883-.421-.883-.941Zm7.773 3.117c0 .098.036.19.101.258a.331.331 0 0 0 .486 0 .379.379 0 0 0 .102-.26.38.38 0 0 0-.102-.26.329.329 0 0 0-.353-.087l-.161.058-.055.172a.413.413 0 0 0-.018.119Zm-.634-14.147c0 .042.005.084.018.122l.058.178.168.06a.347.347 0 0 0 .37-.09.388.388 0 0 0 .106-.269.388.388 0 0 0-.105-.268.35.35 0 0 0-.51 0 .386.386 0 0 0-.105.267Zm-9.4 20.912c0-.248.09-.498.27-.687a.892.892 0 0 1 .949-.232l5.506-5.788 1.816 1.91a.892.892 0 0 1 .95.233c.18.19.27.438.271.687a.997.997 0 0 1-.271.687.892.892 0 0 1-1.307 0 .99.99 0 0 1-.27-.685c0-.105.016-.21.048-.312l-1.237-1.302-4.926 5.179c.032.1.049.206.049.312 0 .248-.09.495-.27.685a.893.893 0 0 1-1.308 0 .993.993 0 0 1-.27-.687Zm8.477-3.876a.38.38 0 0 0 .105.266.35.35 0 0 0 .51 0 .388.388 0 0 0 .105-.268.386.386 0 0 0-.105-.268.348.348 0 0 0-.371-.09l-.168.06-.057.176a.42.42 0 0 0-.02.124ZM20.598 7.973c0-.249.09-.498.27-.688a.893.893 0 0 1 1.308 0c.18.19.27.437.27.686 0 .105-.016.21-.049.311l.485.511h3.928v4.13l2.493 2.619h8.255a.921.921 0 0 1 .828-.541c.51 0 .924.436.924.973 0 .536-.414.971-.924.971a.921.921 0 0 1-.828-.54h-8.595l-2.972-3.126V9.654h-3.448l-.726-.761a.893.893 0 0 1-.949-.234.993.993 0 0 1-.27-.686Zm17.464 8.168a.36.36 0 0 0 .323.212c.199 0 .36-.17.361-.38 0-.209-.162-.38-.361-.38a.359.359 0 0 0-.323.213l-.079.168.079.167Zm-6.4 28.262c0-.248.09-.498.27-.687a.892.892 0 0 1 .95-.233l3.055-3.21a1.03 1.03 0 0 1-.048-.313c0-.248.089-.496.27-.686a.893.893 0 0 1 1.307 0c.18.19.27.44.27.688 0 .249-.09.498-.27.687a.892.892 0 0 1-.95.233l-3.054 3.21c.032.101.049.207.049.312 0 .248-.09.496-.27.686a.893.893 0 0 1-1.308 0 .993.993 0 0 1-.27-.687ZM13.221 10.88c0-.249.09-.499.27-.688a.893.893 0 0 1 1.308 0c.18.19.27.438.27.686 0 .105-.016.211-.049.313l4.123 4.333h5.532l2.954 3.105h8.084a.921.921 0 0 1 .828-.541c.51 0 .925.436.925.973 0 .536-.414.971-.925.971a.921.921 0 0 1-.828-.54H27.29l-2.954-3.106h-5.532l-4.364-4.587a.892.892 0 0 1-.949-.233.993.993 0 0 1-.27-.686ZM36.452 39.96c0 .042.005.083.019.122l.057.177.168.06a.347.347 0 0 0 .371-.09.387.387 0 0 0 .106-.268.388.388 0 0 0-.106-.269.35.35 0 0 0-.51 0 .386.386 0 0 0-.105.268Zm-.235-20.733c.062.13.186.212.323.212.2 0 .361-.17.361-.38 0-.209-.162-.38-.361-.38a.358.358 0 0 0-.322.213l-.08.168.079.167Zm-7.973-10c0-.537.415-.972.926-.972.51 0 .925.435.925.972 0 .381-.21.71-.515.87v1.857l.784.824h3.349l.484-.51a.993.993 0 0 1 .222-.997.893.893 0 0 1 1.308 0c.18.19.27.438.27.687 0 .249-.09.498-.27.688a.892.892 0 0 1-.95.232l-.725.763h-4.029l-1.264-1.33v-2.214a.977.977 0 0 1-.515-.87Zm6.468 2.73c0 .041.006.082.02.121l.056.178.169.06a.345.345 0 0 0 .37-.09.388.388 0 0 0 0-.537.349.349 0 0 0-.51 0 .385.385 0 0 0-.105.267Zm-1.174 18.68c0 .203.155.369.345.369.13 0 .248-.08.307-.206l.077-.162-.077-.162a.341.341 0 0 0-.307-.206c-.19 0-.345.165-.345.368Zm-.028-2.942c0 .213.147.387.327.387.124 0 .236-.083.292-.216l.071-.17-.071-.172c-.056-.133-.168-.215-.292-.215-.18 0-.327.173-.327.386Zm-1.284 16.708c0 .102.038.196.105.269.14.148.37.148.51 0a.399.399 0 0 0 .086-.39l-.057-.178-.168-.06a.346.346 0 0 0-.37.09.387.387 0 0 0-.106.27Zm-.924-3.883a.39.39 0 0 0 .105.27.35.35 0 0 0 .511 0 .4.4 0 0 0 .086-.39l-.058-.178-.168-.06a.346.346 0 0 0-.37.09.388.388 0 0 0-.106.268Zm-4.69-.93c0-.381.21-.71.514-.87v-2.466h2.346a.921.921 0 0 1 .828-.541c.51 0 .925.436.925.972 0 .537-.415.972-.925.972a.921.921 0 0 1-.828-.54h-1.527v1.603c.305.159.516.489.516.87 0 .537-.414.972-.925.972-.51 0-.925-.434-.925-.971Zm3.365-2.738c.061.131.185.212.322.213.199 0 .36-.17.361-.38 0-.209-.162-.38-.361-.38a.358.358 0 0 0-.322.213l-.08.167.08.167Zm-1.17-27.625a.38.38 0 0 0 .203.34l.159.082.16-.083a.38.38 0 0 0 .201-.34.371.371 0 0 0-.361-.378.37.37 0 0 0-.361.379ZM20.87 47.028c0-.536.414-.972.925-.972.363 0 .677.22.828.54h2.689l2.329-2.448a1.028 1.028 0 0 1-.05-.312c0-.248.091-.496.271-.686a.892.892 0 0 1 1.307 0c.18.19.271.44.271.688a.995.995 0 0 1-.271.686.892.892 0 0 1-.95.234l-2.569 2.701h-3.028a.92.92 0 0 1-.827.541c-.51 0-.925-.435-.925-.972Zm7.285-3.192a.39.39 0 0 0 .019.122l.057.178.168.06a.346.346 0 0 0 .372-.09.388.388 0 0 0 .105-.27.387.387 0 0 0-.105-.267.35.35 0 0 0-.51 0 .385.385 0 0 0-.106.267Zm-.98-4.245c.001.21.163.379.362.379.2 0 .361-.17.361-.38a.381.381 0 0 0-.202-.339l-.159-.083-.159.083a.38.38 0 0 0-.202.34Zm-10.266 5.781c0-.249.09-.498.27-.687a.893.893 0 0 1 .95-.233l5.096-5.356v-3.163a.977.977 0 0 1-.515-.87c0-.537.414-.973.925-.973.51 0 .925.436.925.972 0 .382-.211.712-.516.87v3.52l-5.335 5.61a.993.993 0 0 1-.222.997.893.893 0 0 1-1.307 0 .993.993 0 0 1-.27-.687Zm0-36.441c0-.249.09-.498.27-.688a.893.893 0 0 1 1.308 0c.18.19.27.437.27.686 0 .105-.016.21-.048.311l3.03 3.185h1.066a.92.92 0 0 1 .827-.541c.51 0 .925.435.925.972 0 .537-.415.972-.925.972a.92.92 0 0 1-.827-.54h-1.406l-3.27-3.438a.892.892 0 0 1-.95-.233.993.993 0 0 1-.27-.686Zm6.364 26.132a.38.38 0 0 0 .203.338l.159.083.159-.083a.38.38 0 0 0 .202-.339c0-.209-.162-.38-.361-.38-.2 0-.361.171-.361.38Zm.036-22.039c.062.131.186.212.323.212.2 0 .361-.17.361-.38 0-.209-.162-.38-.361-.38a.36.36 0 0 0-.323.213l-.08.167.08.168ZM7.038 16.98c0-.537.413-.972.923-.972.363 0 .677.22.828.54h3.95l1.844 1.94h7.299a.921.921 0 0 1 .828-.542c.51 0 .925.436.925.973 0 .537-.414.972-.925.972a.921.921 0 0 1-.828-.541h-7.638L12.4 17.41H8.79a.92.92 0 0 1-.828.541c-.51 0-.925-.436-.925-.973Zm15.349 2.106c.061.13.185.212.322.212.2 0 .361-.17.361-.38 0-.209-.162-.379-.361-.379a.357.357 0 0 0-.322.212l-.08.168.08.167Zm-.954 27.942c0 .21.162.38.36.38.138 0 .262-.082.323-.213l.08-.167-.08-.168a.357.357 0 0 0-.322-.212c-.2 0-.361.17-.361.38ZM21.16 7.973c0 .1.038.196.107.268a.348.348 0 0 0 .37.091l.169-.06.056-.177a.386.386 0 0 0-.086-.39.35.35 0 0 0-.51 0 .388.388 0 0 0-.106.268ZM9.207 41.489c0-.248.09-.498.27-.687a.893.893 0 0 1 .95-.233l1.647-1.732h2.17l2.328-2.448a1.024 1.024 0 0 1-.049-.312c0-.248.09-.496.27-.685a.892.892 0 0 1 1.308 0c.18.19.271.438.271.686a.997.997 0 0 1-.271.688.892.892 0 0 1-.95.232l-2.569 2.701h-2.168l-1.407 1.48a.993.993 0 0 1-.222.997.893.893 0 0 1-1.307 0 .993.993 0 0 1-.271-.687Zm8.265-32.558c0 .1.038.196.106.268a.347.347 0 0 0 .37.09l.17-.06.056-.176a.386.386 0 0 0-.086-.39.35.35 0 0 0-.51 0 .388.388 0 0 0-.106.268Zm0 36.441c0 .101.037.197.105.269a.35.35 0 0 0 .51 0 .397.397 0 0 0 .086-.39l-.057-.178-.168-.06a.346.346 0 0 0-.37.09.388.388 0 0 0-.106.27Zm-.385-9.296c0 .042.007.084.02.122l.056.178.168.06a.346.346 0 0 0 .371-.09.387.387 0 0 0 .106-.269.386.386 0 0 0-.106-.267.35.35 0 0 0-.51 0 .384.384 0 0 0-.105.266ZM9.805 13.105c0-.537.414-.973.924-.973.363 0 .677.22.828.54h1.183l1.648 1.733a.892.892 0 0 1 .949.233c.18.19.271.438.271.687a.995.995 0 0 1-.271.687.893.893 0 0 1-1.308 0 .992.992 0 0 1-.27-.686c0-.105.017-.21.05-.311l-1.408-1.48h-.844a.92.92 0 0 1-.828.542c-.51 0-.924-.436-.924-.973Zm4.518 2.221c0 .101.037.197.105.267a.35.35 0 0 0 .51 0 .388.388 0 0 0 .106-.269.387.387 0 0 0-.106-.267.349.349 0 0 0-.37-.091l-.169.06-.057.177a.42.42 0 0 0-.019.123Zm-.539-4.447c0 .1.038.196.106.269.097.101.24.136.37.09l.169-.06.057-.177a.422.422 0 0 0 .019-.124.385.385 0 0 0-.105-.267.35.35 0 0 0-.51 0 .388.388 0 0 0-.106.269ZM5.204 36.95c0-.536.414-.971.925-.971.255 0 .485.107.652.283.07.074.13.161.175.257h4.284l.754-.793a1.007 1.007 0 0 1 .222-.997.893.893 0 0 1 1.307 0c.361.38.361.994 0 1.373a.892.892 0 0 1-.949.234l-.994 1.045H6.957a.921.921 0 0 1-.828.54.899.899 0 0 1-.653-.283.997.997 0 0 1-.272-.688Zm7.324-1.412.058.177.168.06a.347.347 0 0 0 .371-.09.394.394 0 0 0 0-.538.35.35 0 0 0-.51 0 .393.393 0 0 0-.087.391ZM8.293 21.73a1.008 1.008 0 0 1-.019-1.375.899.899 0 0 1 .65-.294.898.898 0 0 1 .657.274c.26.266.34.654.235.994l1.599 1.588a.891.891 0 0 1 .951.218c.367.373.376.99.02 1.375a.898.898 0 0 1-1.308.02 1.006 1.006 0 0 1-.234-.995l-1.599-1.588a.894.894 0 0 1-.952-.218Zm3.087 1.986a.39.39 0 0 0 .09.389.35.35 0 0 0 .512-.007.394.394 0 0 0-.007-.537.349.349 0 0 0-.373-.085l-.167.062-.055.178ZM4 26.959c0-.249.09-.498.27-.688a.892.892 0 0 1 .95-.232l2.739-2.88 3.176 3.339v3.184a.977.977 0 0 1 .515.87c0 .537-.414.971-.924.971-.511 0-.925-.434-.925-.971 0-.382.21-.711.514-.87v-2.826L7.96 24.377l-2.16 2.27a.992.992 0 0 1-.222.997.893.893 0 0 1-1.306 0A.993.993 0 0 1 4 26.96Zm6.368-13.854c0 .208.162.38.361.38.138 0 .26-.082.323-.212l.079-.168-.08-.168a.358.358 0 0 0-.322-.212c-.199 0-.36.17-.36.38Zm-.004 17.446c0 .21.162.38.362.38.199 0 .36-.17.36-.38a.38.38 0 0 0-.201-.34l-.16-.082-.159.083a.38.38 0 0 0-.202.339Zm-.593 10.938c0 .101.037.196.105.268a.35.35 0 0 0 .51 0 .4.4 0 0 0 .086-.39l-.057-.177-.168-.06a.346.346 0 0 0-.371.09.388.388 0 0 0-.105.27ZM8.678 20.767a.393.393 0 0 0 .007.536.35.35 0 0 0 .372.085l.167-.063.054-.177a.39.39 0 0 0-.09-.39.35.35 0 0 0-.51.009ZM7.6 16.98c0 .208.162.38.36.38.138 0 .262-.082.323-.212l.08-.168-.08-.168a.357.357 0 0 0-.322-.211.37.37 0 0 0-.361.379ZM4 31.81c0-.25.09-.498.27-.688a.893.893 0 0 1 .95-.232l1.21-1.273a1.025 1.025 0 0 1-.048-.311c0-.249.09-.496.27-.686a.892.892 0 0 1 1.307 0c.18.19.271.438.271.687a.996.996 0 0 1-.271.687.892.892 0 0 1-.95.233L5.8 31.499a.992.992 0 0 1-.222.997.893.893 0 0 1-1.306 0A.993.993 0 0 1 4 31.81Zm2.945-2.505c0 .042.007.083.02.122l.056.178.17.06a.347.347 0 0 0 .37-.09.388.388 0 0 0 .106-.27.388.388 0 0 0-.105-.268.35.35 0 0 0-.511 0 .387.387 0 0 0-.106.268ZM5.768 36.95c0 .102.038.197.106.269.068.071.159.11.256.111a.36.36 0 0 0 .322-.212l.08-.168-.08-.167a.401.401 0 0 0-.07-.101.349.349 0 0 0-.253-.112c-.2 0-.361.17-.361.38ZM4.563 31.81c0 .1.039.195.106.268a.35.35 0 0 0 .51 0 .4.4 0 0 0 .086-.39l-.057-.177-.168-.06a.346.346 0 0 0-.371.09.388.388 0 0 0-.106.269Zm0-4.851a.39.39 0 0 0 .106.268.35.35 0 0 0 .51 0 .401.401 0 0 0 .086-.39l-.057-.177-.168-.06a.346.346 0 0 0-.371.09.388.388 0 0 0-.106.269Z" style="mix-blend-mode:multiply"/><g filter="url(#d)"><path fill="#F9F9FD" d="m13.16 33 5.152-11.44h3.952L27.416 33h-2.784l-1.088-2.416h-6.512L15.944 33H13.16Zm4.8-4.496h4.656l-2.224-4.944h-.208l-2.224 4.944ZM29.498 33V21.56h2.56V33h-2.56Z"/></g><defs><linearGradient id="a" x1="10" x2="38.5" y1="22" y2="35" gradientUnits="userSpaceOnUse"><stop stop-color="#50BCBD"/><stop offset="1" stop-color="#1E3A8A"/></linearGradient><linearGradient id="b" x1="23.5" x2="23.5" y1="0" y2="55" gradientUnits="userSpaceOnUse"><stop stop-color="#FCD700"/><stop offset=".5" stop-color="#CF66EC"/><stop offset=".837" stop-color="#F6FFCC"/></linearGradient><linearGradient id="c" x1="23.5" x2="23.5" y1="7" y2="48" gradientUnits="userSpaceOnUse"><stop stop-color="#49DDEA"/><stop offset="1" stop-color="#1F3561"/></linearGradient><filter id="d" width="18.898" height="11.64" x="13.16" y="21.56" color-interpolation-filters="sRGB" filterUnits="userSpaceOnUse"><feFlood flood-opacity="0" result="BackgroundImageFix"/><feColorMatrix in="SourceAlpha" result="hardAlpha" values="0 0 0 0 0 0 0 0 0 0 0 0 0 0 0 0 0 0 127 0"/><feOffset dy=".2"/><feComposite in2="hardAlpha" operator="out"/><feColorMatrix values="0 0 0 0 0.121569 0 0 0 0 0.203922 0 0 0 0 0.376471 0 0 0 1 0"/><feBlend in2="BackgroundImageFix" result="effect1_dropShadow_221_1440"/><feBlend in="SourceGraphic" in2="effect1_dropShadow_221_1440" result="shape"/></filter></defs></svg>